<?xml version="1.0" encoding="UTF-8" standalone="no"?>
<!DOCTYPE svg PUBLIC "-//W3C//DTD SVG 1.1//EN" "http://www.w3.org/Graphics/SVG/1.1/DTD/svg11.dtd">
<svg version="1.1" xmlns="http://www.w3.org/2000/svg" xmlns:dc="http://purl.org/dc/elements/1.1/" xmlns:xl="http://www.w3.org/1999/xlink" viewBox="40.121094 38.180923 997.5039 473.5691" width="997.5039" height="473.5691">
  <defs>
    <marker orient="auto" overflow="visible" markerUnits="strokeWidth" id="FilledArrow_Marker" stroke-linejoin="miter" stroke-miterlimit="10" viewBox="-1 -3 7 6" markerWidth="7" markerHeight="6" color="#a5a5a5">
      <g>
        <path d="M 4.8 0 L 0 -1.8 L 0 1.8 Z" fill="currentColor" stroke="currentColor" stroke-width="1"/>
      </g>
    </marker>
  </defs>
  <metadata> Produced by OmniGraffle 7.20\n2022-05-04 11:10:44 +0000</metadata>
  <g id="Canvas_1" fill="none" stroke-opacity="1" fill-opacity="1" stroke="none" stroke-dasharray="none">
    <title>Canvas 1</title>
    <rect fill="white" x="40.121094" y="38.180923" width="997.5039" height="473.5691"/>
    <g id="Canvas_1_Layer_1">
      <title>Layer 1</title>
      <g id="Line_42">
        <line x1="702.2891" y1="349.5" x2="702.2891" y2="322.65" marker-end="url(#FilledArrow_Marker)" stroke="#a5a5a5" stroke-linecap="round" stroke-linejoin="round" stroke-width="2"/>
      </g>
      <g id="Graphic_17">
        <rect x="534.3828" y="41.75" width="335.8125" height="268" fill="#f2f2f2"/>
        <rect x="534.3828" y="41.75" width="335.8125" height="268" stroke="gray" stroke-linecap="round" stroke-linejoin="round" stroke-width="3"/>
      </g>
      <g id="Graphic_18">
        <rect x="701.25" y="289" width="168" height="21" fill="gray"/>
        <rect x="701.25" y="289" width="168" height="21" stroke="gray" stroke-linecap="round" stroke-linejoin="round" stroke-width="1"/>
        <text transform="translate(706.25 290.79695)" fill="white">
          <tspan font-family="Helvetica Neue" font-weight="bold" font-size="14" fill="white" x="5.29" y="14">Implementation Guide</tspan>
        </text>
      </g>
      <g id="Graphic_2">
        <path d="M 53 146.5 L 149.5 146.5 C 155.02285 146.5 159.5 150.97715 159.5 156.5 L 159.5 195 C 159.5 200.52285 155.02285 205 149.5 205 L 53 205 C 47.47715 205 43 200.52285 43 195 L 43 156.5 C 43 150.97715 47.47715 146.5 53 146.5 Z" fill="#ccc"/>
        <path d="M 53 146.5 L 149.5 146.5 C 155.02285 146.5 159.5 150.97715 159.5 156.5 L 159.5 195 C 159.5 200.52285 155.02285 205 149.5 205 L 53 205 C 47.47715 205 43 200.52285 43 195 L 43 156.5 C 43 150.97715 47.47715 146.5 53 146.5 Z" stroke="#666" stroke-linecap="round" stroke-linejoin="round" stroke-width="1"/>
        <text transform="translate(48 157.302)" fill="black">
          <tspan font-family="Helvetica Neue" font-size="16" fill="black" x="16.05" y="15">Problem &amp; </tspan>
          <tspan font-family="Helvetica Neue" font-size="16" fill="black" x="10.73" y="33.448">Participants</tspan>
        </text>
      </g>
      <g id="Graphic_4">
        <path d="M 223.75 146.5 L 320.25 146.5 C 325.77285 146.5 330.25 150.97715 330.25 156.5 L 330.25 195 C 330.25 200.52285 325.77285 205 320.25 205 L 223.75 205 C 218.22715 205 213.75 200.52285 213.75 195 L 213.75 156.5 C 213.75 150.97715 218.22715 146.5 223.75 146.5 Z" fill="#ccc"/>
        <path d="M 223.75 146.5 L 320.25 146.5 C 325.77285 146.5 330.25 150.97715 330.25 156.5 L 330.25 195 C 330.25 200.52285 325.77285 205 320.25 205 L 223.75 205 C 218.22715 205 213.75 200.52285 213.75 195 L 213.75 156.5 C 213.75 150.97715 218.22715 146.5 223.75 146.5 Z" stroke="#666" stroke-linecap="round" stroke-linejoin="round" stroke-width="1"/>
        <text transform="translate(218.75 166.526)" fill="black">
          <tspan font-family="Helvetica Neue" font-size="16" fill="black" x="16.066" y="15">Use cases</tspan>
        </text>
      </g>
      <g id="Graphic_5">
        <path d="M 394.5 146.5 L 491 146.5 C 496.52285 146.5 501 150.97715 501 156.5 L 501 195 C 501 200.52285 496.52285 205 491 205 L 394.5 205 C 388.97715 205 384.5 200.52285 384.5 195 L 384.5 156.5 C 384.5 150.97715 388.97715 146.5 394.5 146.5 Z" fill="#ffca68"/>
        <path d="M 394.5 146.5 L 491 146.5 C 496.52285 146.5 501 150.97715 501 156.5 L 501 195 C 501 200.52285 496.52285 205 491 205 L 394.5 205 C 388.97715 205 384.5 200.52285 384.5 195 L 384.5 156.5 C 384.5 150.97715 388.97715 146.5 394.5 146.5 Z" stroke="#666" stroke-linecap="round" stroke-linejoin="round" stroke-width="1"/>
        <text transform="translate(389.5 166.526)" fill="black">
          <tspan font-family="Helvetica Neue" font-size="16" fill="black" x="1.234" y="15">Data Elements</tspan>
        </text>
      </g>
      <g id="Graphic_6">
        <path d="M 394.5 230 L 491 230 C 496.52285 230 501 234.47715 501 240 L 501 278.5 C 501 284.02285 496.52285 288.5 491 288.5 L 394.5 288.5 C 388.97715 288.5 384.5 284.02285 384.5 278.5 L 384.5 240 C 384.5 234.47715 388.97715 230 394.5 230 Z" fill="#c0bf6c"/>
        <path d="M 394.5 230 L 491 230 C 496.52285 230 501 234.47715 501 240 L 501 278.5 C 501 284.02285 496.52285 288.5 491 288.5 L 394.5 288.5 C 388.97715 288.5 384.5 284.02285 384.5 278.5 L 384.5 240 C 384.5 234.47715 388.97715 230 394.5 230 Z" stroke="#666" stroke-linecap="round" stroke-linejoin="round" stroke-width="1"/>
        <text transform="translate(389.5 250.026)" fill="black">
          <tspan font-family="Helvetica Neue" font-size="16" fill="black" x="9.986" y="15">Terminology</tspan>
        </text>
      </g>
      <g id="Graphic_7">
        <path d="M 394.5 63 L 491 63 C 496.52285 63 501 67.47715 501 73 L 501 111.5 C 501 117.02285 496.52285 121.5 491 121.5 L 394.5 121.5 C 388.97715 121.5 384.5 117.02285 384.5 111.5 L 384.5 73 C 384.5 67.47715 388.97715 63 394.5 63 Z" fill="#6dc6d4"/>
        <path d="M 394.5 63 L 491 63 C 496.52285 63 501 67.47715 501 73 L 501 111.5 C 501 117.02285 496.52285 121.5 491 121.5 L 394.5 121.5 C 388.97715 121.5 384.5 117.02285 384.5 111.5 L 384.5 73 C 384.5 67.47715 388.97715 63 394.5 63 Z" stroke="#666" stroke-linecap="round" stroke-linejoin="round" stroke-width="1"/>
        <text transform="translate(389.5 83.026)" fill="black">
          <tspan font-family="Helvetica Neue" font-size="16" fill="black" x="20.09" y="15">Workflow</tspan>
        </text>
      </g>
      <g id="Graphic_10">
        <path d="M 565.25 146.5 L 661.75 146.5 C 667.27285 146.5 671.75 150.97715 671.75 156.5 L 671.75 195 C 671.75 200.52285 667.27285 205 661.75 205 L 565.25 205 C 559.72715 205 555.25 200.52285 555.25 195 L 555.25 156.5 C 555.25 150.97715 559.72715 146.5 565.25 146.5 Z" fill="#ffca68"/>
        <path d="M 565.25 146.5 L 661.75 146.5 C 667.27285 146.5 671.75 150.97715 671.75 156.5 L 671.75 195 C 671.75 200.52285 667.27285 205 661.75 205 L 565.25 205 C 559.72715 205 555.25 200.52285 555.25 195 L 555.25 156.5 C 555.25 150.97715 559.72715 146.5 565.25 146.5 Z" stroke="#666" stroke-linecap="round" stroke-linejoin="round" stroke-width="1"/>
        <text transform="translate(560.25 166.526)" fill="black">
          <tspan font-family="Helvetica Neue" font-size="16" fill="black" x="6.594" y="15">FHIR Profiles</tspan>
        </text>
      </g>
      <g id="Graphic_9">
        <path d="M 565.25 230 L 661.75 230 C 667.27285 230 671.75 234.47715 671.75 240 L 671.75 278.5 C 671.75 284.02285 667.27285 288.5 661.75 288.5 L 565.25 288.5 C 559.72715 288.5 555.25 284.02285 555.25 278.5 L 555.25 240 C 555.25 234.47715 559.72715 230 565.25 230 Z" fill="#c0bf6c"/>
        <path d="M 565.25 230 L 661.75 230 C 667.27285 230 671.75 234.47715 671.75 240 L 671.75 278.5 C 671.75 284.02285 667.27285 288.5 661.75 288.5 L 565.25 288.5 C 559.72715 288.5 555.25 284.02285 555.25 278.5 L 555.25 240 C 555.25 234.47715 559.72715 230 565.25 230 Z" stroke="#666" stroke-linecap="round" stroke-linejoin="round" stroke-width="1"/>
        <text transform="translate(560.25 240.802)" fill="black">
          <tspan font-family="Helvetica Neue" font-size="16" fill="black" x="13.842" y="15">FHIR Value </tspan>
          <tspan font-family="Helvetica Neue" font-size="16" fill="black" x="37.25" y="33.448">Sets</tspan>
        </text>
      </g>
      <g id="Graphic_8">
        <path d="M 565.25 63 L 661.75 63 C 667.27285 63 671.75 67.47715 671.75 73 L 671.75 111.5 C 671.75 117.02285 667.27285 121.5 661.75 121.5 L 565.25 121.5 C 559.72715 121.5 555.25 117.02285 555.25 111.5 L 555.25 73 C 555.25 67.47715 559.72715 63 565.25 63 Z" fill="#6dc6d4"/>
        <path d="M 565.25 63 L 661.75 63 C 667.27285 63 671.75 67.47715 671.75 73 L 671.75 111.5 C 671.75 117.02285 667.27285 121.5 661.75 121.5 L 565.25 121.5 C 559.72715 121.5 555.25 117.02285 555.25 111.5 L 555.25 73 C 555.25 67.47715 559.72715 63 565.25 63 Z" stroke="#666" stroke-linecap="round" stroke-linejoin="round" stroke-width="1"/>
        <text transform="translate(560.25 73.802)" fill="black">
          <tspan font-family="Helvetica Neue" font-size="16" fill="black" x="35.33" y="15">FHIR </tspan>
          <tspan font-family="Helvetica Neue" font-size="16" fill="black" x="13.834" y="33.448">Operations</tspan>
        </text>
      </g>
      <g id="Graphic_11">
        <path d="M 736 63 L 832.5 63 C 838.0228 63 842.5 67.47715 842.5 73 L 842.5 111.5 C 842.5 117.02285 838.0228 121.5 832.5 121.5 L 736 121.5 C 730.47715 121.5 726 117.02285 726 111.5 L 726 73 C 726 67.47715 730.47715 63 736 63 Z" fill="#6dc6d4"/>
        <path d="M 736 63 L 832.5 63 C 838.0228 63 842.5 67.47715 842.5 73 L 842.5 111.5 C 842.5 117.02285 838.0228 121.5 832.5 121.5 L 736 121.5 C 730.47715 121.5 726 117.02285 726 111.5 L 726 73 C 726 67.47715 730.47715 63 736 63 Z" stroke="#666" stroke-linecap="round" stroke-linejoin="round" stroke-width="1"/>
        <text transform="translate(731 73.802)" fill="black">
          <tspan font-family="Helvetica Neue" font-size="16" fill="black" x="17.546" y="15">Capability </tspan>
          <tspan font-family="Helvetica Neue" font-size="16" fill="black" x="16.346" y="33.448">Statement</tspan>
        </text>
      </g>
      <g id="Graphic_12">
        <path d="M 736 146.5 L 832.5 146.5 C 838.0228 146.5 842.5 150.97715 842.5 156.5 L 842.5 195 C 842.5 200.52285 838.0228 205 832.5 205 L 736 205 C 730.47715 205 726 200.52285 726 195 L 726 156.5 C 726 150.97715 730.47715 146.5 736 146.5 Z" fill="#ffca68"/>
        <path d="M 736 146.5 L 832.5 146.5 C 838.0228 146.5 842.5 150.97715 842.5 156.5 L 842.5 195 C 842.5 200.52285 838.0228 205 832.5 205 L 736 205 C 730.47715 205 726 200.52285 726 195 L 726 156.5 C 726 150.97715 730.47715 146.5 736 146.5 Z" stroke="#666" stroke-linecap="round" stroke-linejoin="round" stroke-width="1"/>
        <text transform="translate(731 157.302)" fill="black">
          <tspan font-family="Helvetica Neue" font-size="16" fill="black" x="35.33" y="15">FHIR </tspan>
          <tspan font-family="Helvetica Neue" font-size="16" fill="black" x="18.874" y="33.448">examples</tspan>
        </text>
      </g>
      <g id="Graphic_14">
        <path d="M 915.875 63 L 1012.375 63 C 1017.8978 63 1022.375 67.47715 1022.375 73 L 1022.375 111.5 C 1022.375 117.02285 1017.8978 121.5 1012.375 121.5 L 915.875 121.5 C 910.3522 121.5 905.875 117.02285 905.875 111.5 L 905.875 73 C 905.875 67.47715 910.3522 63 915.875 63 Z" fill="#ccc"/>
        <path d="M 915.875 63 L 1012.375 63 C 1017.8978 63 1022.375 67.47715 1022.375 73 L 1022.375 111.5 C 1022.375 117.02285 1017.8978 121.5 1012.375 121.5 L 915.875 121.5 C 910.3522 121.5 905.875 117.02285 905.875 111.5 L 905.875 73 C 905.875 67.47715 910.3522 63 915.875 63 Z" stroke="#666" stroke-linecap="round" stroke-linejoin="round" stroke-width="1"/>
        <text transform="translate(910.875 83.026)" fill="black">
          <tspan font-family="Helvetica Neue" font-size="16" fill="black" x=".954" y="15">Test Scenarios</tspan>
        </text>
      </g>
      <g id="Graphic_15">
        <path d="M 906.75 146.5 L 1021.5 146.5 C 1027.0228 146.5 1031.5 150.97715 1031.5 156.5 L 1031.5 195 C 1031.5 200.52285 1027.0228 205 1021.5 205 L 906.75 205 C 901.2272 205 896.75 200.52285 896.75 195 L 896.75 156.5 C 896.75 150.97715 901.2272 146.5 906.75 146.5 Z" fill="#ccc"/>
        <path d="M 906.75 146.5 L 1021.5 146.5 C 1027.0228 146.5 1031.5 150.97715 1031.5 156.5 L 1031.5 195 C 1031.5 200.52285 1027.0228 205 1021.5 205 L 906.75 205 C 901.2272 205 896.75 200.52285 896.75 195 L 896.75 156.5 C 896.75 150.97715 901.2272 146.5 906.75 146.5 Z" stroke="#666" stroke-linecap="round" stroke-linejoin="round" stroke-width="1"/>
        <text transform="translate(901.75 157.302)" fill="black">
          <tspan font-family="Helvetica Neue" font-size="16" fill="black" x="26.079" y="15">Reference </tspan>
          <tspan font-family="Helvetica Neue" font-size="16" fill="black" x="6.943" y="33.448">Implementation</tspan>
        </text>
      </g>
      <g id="Graphic_16">
        <path d="M 915.875 230 L 1012.375 230 C 1017.8978 230 1022.375 234.47715 1022.375 240 L 1022.375 278.5 C 1022.375 284.02285 1017.8978 288.5 1012.375 288.5 L 915.875 288.5 C 910.3522 288.5 905.875 284.02285 905.875 278.5 L 905.875 240 C 905.875 234.47715 910.3522 230 915.875 230 Z" fill="#ccc"/>
        <path d="M 915.875 230 L 1012.375 230 C 1017.8978 230 1022.375 234.47715 1022.375 240 L 1022.375 278.5 C 1022.375 284.02285 1017.8978 288.5 1012.375 288.5 L 915.875 288.5 C 910.3522 288.5 905.875 284.02285 905.875 278.5 L 905.875 240 C 905.875 234.47715 910.3522 230 915.875 230 Z" stroke="#666" stroke-linecap="round" stroke-linejoin="round" stroke-width="1"/>
        <text transform="translate(910.875 250.026)" fill="black">
          <tspan font-family="Helvetica Neue" font-size="16" fill="black" x="19.762" y="15">Test Data</tspan>
        </text>
      </g>
      <g id="Line_19">
        <line x1="159.5" y1="175.75" x2="200.85" y2="175.75" marker-end="url(#FilledArrow_Marker)" stroke="#a5a5a5" stroke-linecap="round" stroke-linejoin="round" stroke-width="2"/>
      </g>
      <g id="Line_20">
        <path d="M 330.25 175.75 L 357.375 175.75 L 357.375 92.25 L 371.6 92.25" marker-end="url(#FilledArrow_Marker)" stroke="#a5a5a5" stroke-linecap="round" stroke-linejoin="round" stroke-width="2"/>
      </g>
      <g id="Line_21">
        <line x1="330.25" y1="175.75" x2="371.6" y2="175.75" marker-end="url(#FilledArrow_Marker)" stroke="#a5a5a5" stroke-linecap="round" stroke-linejoin="round" stroke-width="2"/>
      </g>
      <g id="Line_23">
        <path d="M 330.25 175.75 L 357.375 175.75 L 357.375 259.25 L 371.6 259.25" marker-end="url(#FilledArrow_Marker)" stroke="#a5a5a5" stroke-linecap="round" stroke-linejoin="round" stroke-width="2"/>
      </g>
      <g id="Line_24">
        <line x1="501" y1="92.25" x2="542.35" y2="92.25" marker-end="url(#FilledArrow_Marker)" stroke="#a5a5a5" stroke-linecap="round" stroke-linejoin="round" stroke-width="2"/>
      </g>
      <g id="Line_25">
        <line x1="501" y1="175.75" x2="542.35" y2="175.75" marker-end="url(#FilledArrow_Marker)" stroke="#a5a5a5" stroke-linecap="round" stroke-linejoin="round" stroke-width="2"/>
      </g>
      <g id="Line_26">
        <line x1="501" y1="259.25" x2="542.35" y2="259.25" marker-end="url(#FilledArrow_Marker)" stroke="#a5a5a5" stroke-linecap="round" stroke-linejoin="round" stroke-width="2"/>
      </g>
      <g id="Line_27">
        <line x1="613.5" y1="230" x2="613.5" y2="217.9" marker-end="url(#FilledArrow_Marker)" stroke="#a5a5a5" stroke-linecap="round" stroke-linejoin="round" stroke-width="2"/>
      </g>
      <g id="Line_28">
        <line x1="671.75" y1="92.25" x2="713.1" y2="92.25" marker-end="url(#FilledArrow_Marker)" stroke="#a5a5a5" stroke-linecap="round" stroke-linejoin="round" stroke-width="2"/>
      </g>
      <g id="Line_29">
        <line x1="671.75" y1="175.75" x2="713.1" y2="175.75" marker-end="url(#FilledArrow_Marker)" stroke="#a5a5a5" stroke-linecap="round" stroke-linejoin="round" stroke-width="2"/>
      </g>
      <g id="Line_30">
        <line x1="964.125" y1="230" x2="964.125" y2="217.9" marker-end="url(#FilledArrow_Marker)" stroke="#a5a5a5" stroke-linecap="round" stroke-linejoin="round" stroke-width="2"/>
      </g>
      <g id="Line_31">
        <line x1="964.125" y1="121.5" x2="964.125" y2="133.6" marker-end="url(#FilledArrow_Marker)" stroke="#a5a5a5" stroke-linecap="round" stroke-linejoin="round" stroke-width="2"/>
      </g>
      <g id="Line_32">
        <line x1="870.1953" y1="175.75" x2="883.85" y2="175.75" marker-end="url(#FilledArrow_Marker)" stroke="#a5a5a5" stroke-linecap="round" stroke-linejoin="round" stroke-width="2"/>
      </g>
      <g id="Line_34">
        <path d="M 41.121094 51.5 L 41.121094 41.75 L 507.8281 41.75 L 507.8281 51.5" stroke="#d6d6d6" stroke-linecap="round" stroke-linejoin="round" stroke-width="2"/>
      </g>
      <g id="Graphic_35">
        <text transform="translate(211.0321 43.180923)" fill="#9a9a9a">
          <tspan font-family="Helvetica Neue" font-weight="bold" font-size="11" fill="#9a9a9a" x="0" y="11">Upstream work </tspan>
          <tspan font-family="Helvetica Neue" font-size="11" fill="#9a9a9a" y="11">is critical</tspan>
        </text>
      </g>
      <g id="Graphic_37">
        <text transform="translate(386.4135 292)" fill="#9a9a9a">
          <tspan font-family="Helvetica Neue" font-size="11" fill="#9a9a9a" x="0" y="10">Choose code systems,</tspan>
          <tspan font-family="Helvetica Neue" font-size="11" fill="#9a9a9a" x=".0165" y="22.307999">identifiers, answer sets</tspan>
        </text>
      </g>
      <g id="Graphic_38">
        <text transform="translate(902.1895 295)" fill="#9a9a9a">
          <tspan font-family="Helvetica Neue" font-size="11" fill="#9a9a9a" x="0" y="10">Synthetic or de-identified</tspan>
        </text>
      </g>
      <g id="Graphic_40">
        <rect x="534.3828" y="349.5" width="335.8125" height="160.75" fill="#b1a8f3"/>
        <rect x="534.3828" y="349.5" width="335.8125" height="160.75" stroke="#443c83" stroke-linecap="round" stroke-linejoin="round" stroke-width="3"/>
        <text transform="translate(539.3828 354.5)" fill="black">
          <tspan font-family="Helvetica Neue" font-size="16" fill="black" x="0" y="15">1.	Choose suitable FHIR resources for </tspan>
          <tspan font-family="Helvetica Neue" font-size="16" fill="black" x="29.35" y="33.448">exchanged data</tspan>
          <tspan font-family="Helvetica Neue" font-size="16" fill="black" x="0" y="51.895996">2.	Map identified data elements to existing </tspan>
          <tspan font-family="Helvetica Neue" font-size="16" fill="black" x="29.35" y="70.34399">FHIR elements</tspan>
          <tspan font-family="Helvetica Neue" font-size="16" fill="black" x="0" y="88.79199">3.	Identify extensions needed, if any</tspan>
          <tspan font-family="Helvetica Neue" font-size="16" fill="black" x="0" y="107.23999">4.	Decide required/optional, binding </tspan>
          <tspan font-family="Helvetica Neue" font-size="16" fill="black" x="29.35" y="125.68799">strength, data types, etc.</tspan>
        </text>
      </g>
      <g id="Graphic_39">
        <rect x="702.1953" y="489.25" width="168" height="21" fill="#443c83"/>
        <text transform="translate(707.1953 491.04695)" fill="white">
          <tspan font-family="Helvetica Neue" font-weight="bold" font-size="14" fill="white" x="17.323" y="14">Profiling decisions</tspan>
        </text>
      </g>
      <g id="Line_43">
        <path d="M 891.625 51.5 L 891.625 41.75 L 1036.625 41.75 L 1036.625 51.5" stroke="#d6d6d6" stroke-linecap="round" stroke-linejoin="round" stroke-width="2"/>
      </g>
      <g id="Graphic_44">
        <text transform="translate(914.5315 43.180923)" fill="#9a9a9a">
          <tspan font-family="Helvetica Neue" font-weight="bold" font-size="11" fill="#9a9a9a" x="1.529" y="11">Downstream work </tspan>
        </text>
      </g>
    </g>
  </g>
</svg>
